<svg width="136" height="145" viewBox="0 0 136 145" fill="none" xmlns="http://www.w3.org/2000/svg">
<g clip-path="url(#clip0)">
<rect width="136" height="145" transform="matrix(-1 0 0 1 136 0)" fill="url(#paint0_linear)"/>
<path d="M85.7616 102.092H85.1077C83.651 102.092 82.135 102.092 80.7675 101.881L82.3133 102.392C73.5521 101.89 65.0748 99.0739 57.7293 94.2245L54.3999 97.6475V102.932C54.4048 103.56 54.1829 104.169 53.7756 104.644L20.0655 144.129C19.8405 144.387 19.5668 144.597 19.2606 144.746C18.9543 144.896 18.6216 144.982 18.2819 145C17.6453 145.007 17.0295 144.771 16.5577 144.339L1.09978 129.896C0.591888 129.41 0.293076 128.741 0.267441 128.035C0.26973 127.686 0.342041 127.341 0.479996 127.021C0.617935 126.701 0.81868 126.413 1.07007 126.173L38.3177 89.4202C38.6862 89.028 39.1822 88.7829 39.7149 88.7295L45.1549 87.8888L47.533 85.4566C40.9321 78.151 36.5745 69.0657 34.9901 59.3052C33.4057 49.5447 34.6627 39.5295 38.6083 30.4771C42.5539 21.4248 49.0182 13.7253 57.2151 8.3147C65.4121 2.9041 74.9887 0.0154697 84.7807 0L85.4644 0C92.9243 0.0217918 100.287 1.70669 107.028 4.93443C113.769 8.16218 119.722 12.8532 124.461 18.6726C129.2 24.4921 132.609 31.2965 134.444 38.6001C136.279 45.9038 136.496 53.5266 135.078 60.9246C132.78 72.4596 126.626 82.8457 117.647 90.3411C108.667 97.8364 97.4097 101.985 85.7616 102.092ZM46.8196 92.8432L41.3498 93.684L6.30197 127.975L17.8062 138.724L49.3463 102.092V96.6867C49.3558 96.0032 49.6214 95.3487 50.0895 94.855L53.5973 91.2818C52.7649 90.5912 51.9623 89.9006 51.1894 89.1799L48.2167 92.1826C47.8273 92.5397 47.3404 92.7699 46.8196 92.8432ZM85.4644 5.16463H84.8698C72.9655 5.49772 61.661 10.5155 53.3672 19.148C45.0735 27.7804 40.4468 39.3443 40.474 51.3734C40.5011 63.4026 45.1799 74.945 53.5125 83.5392C61.8452 92.1333 73.1722 97.099 85.0779 97.3773H85.6725C97.5768 97.0442 108.881 92.0264 117.175 83.394C125.469 74.7615 130.095 63.1977 130.068 51.1685C130.041 39.1394 125.362 27.5969 117.03 19.0028C108.697 10.4086 97.3701 5.4429 85.4644 5.16463Z" fill="#FF7E00"/>
<path d="M85.4643 93.0835H84.9292C76.8011 93.0299 68.8689 90.5577 62.1239 85.9759C55.379 81.3941 50.1205 74.9059 47.0058 67.3223C43.891 59.7386 43.058 51.3959 44.611 43.3368C46.164 35.2777 50.0341 27.8596 55.7375 22.0098C59.5316 18.0815 64.0609 14.9543 69.0621 12.8099C74.0633 10.6655 79.4367 9.54669 84.8698 9.51855H85.4643C96.4349 9.51855 106.956 13.9206 114.714 21.7564C122.471 29.5921 126.829 40.2196 126.829 51.301C126.829 62.3824 122.471 73.0099 114.714 80.8457C106.956 88.6814 96.4349 93.0835 85.4643 93.0835ZM95.5119 15.7341C95.066 15.7341 94.6201 15.7341 94.1445 15.7341C91.2302 14.9782 88.2353 14.5849 85.2265 14.5631H84.7806C76.9453 14.6207 69.34 17.2441 63.1064 22.0395C56.8729 26.8349 52.3477 33.5434 50.2102 41.1578C48.0727 48.7722 48.4382 56.8816 51.2519 64.2682C54.0657 71.6549 59.1757 77.9203 65.8149 82.1236C66.4689 82.514 67.0931 82.9344 67.7769 83.2947H67.9552C73.1746 86.2359 79.042 87.8053 85.0184 87.8588H85.494C92.5504 87.8317 99.4289 85.6205 105.203 81.5231L105.5 81.3429L105.857 81.0727C107.672 79.772 109.373 78.3153 110.94 76.7188C115.152 72.3557 118.217 66.9988 119.858 61.1348C119.858 60.6544 120.066 60.174 120.185 59.6935C120.304 59.2131 120.512 58.4925 120.631 57.8919C121.107 55.3984 121.346 52.8646 121.345 50.3251C121.213 42.541 118.642 34.9994 114 28.7841C109.359 22.5689 102.886 18 95.5119 15.7341Z" fill="#FF7E00"/>
<path d="M114.685 42.8478C115.021 42.819 115.359 42.8601 115.679 42.9686C115.999 43.0771 116.293 43.2507 116.544 43.4786C116.795 43.7066 116.997 43.984 117.137 44.2939C117.277 44.6037 117.353 44.9393 117.36 45.28C117.566 48.9217 117.307 52.5751 116.587 56.1497C115.324 62.1818 112.823 67.8793 109.245 72.8747C109.003 73.204 108.69 73.4728 108.329 73.6602C107.968 73.8476 107.57 73.9487 107.164 73.9557C106.627 73.9514 106.106 73.7724 105.678 73.4452C105.311 73.1738 105.023 72.8073 104.845 72.3845C104.667 71.9617 104.606 71.4983 104.667 71.0431C104.743 70.7649 104.863 70.5012 105.024 70.2624C108.2 65.7745 110.399 60.6576 111.474 55.2489C112.156 51.8923 112.406 48.4609 112.218 45.0398C112.187 44.8207 112.187 44.5983 112.218 44.3792C112.417 43.8938 112.762 43.4844 113.205 43.2094C113.649 42.9344 114.166 42.8078 114.685 42.8478Z" fill="#FF7E00"/>
</g>
<defs>
<linearGradient id="paint0_linear" x1="68" y1="0" x2="68" y2="145" gradientUnits="userSpaceOnUse">
<stop stop-color="white"/>
<stop offset="1" stop-color="white" stop-opacity="0"/>
</linearGradient>
<clipPath id="clip0">
<rect width="136" height="145" fill="white" transform="matrix(-1 0 0 1 136 0)"/>
</clipPath>
</defs>
</svg>
