<svg width="71" height="71" viewBox="0 0 71 71" fill="none" xmlns="http://www.w3.org/2000/svg">
<g clip-path="url(#clip0)">
<path d="M1.68972 17.6484C2.45607 28.2871 7.77544 41.0671 18.865 52.1341C29.9545 63.2011 42.8246 68.543 53.3958 69.3093C57.0246 69.5573 66.9196 62.1868 68.6326 56.89C69.9399 53.0357 69.5342 50.4211 65.9729 48.5954L57.6332 44.0874C55.6046 42.983 54.0269 43.7719 52.2913 46.1836C48.437 51.4579 46.5888 52.4947 41.878 49.8801C37.6132 47.3538 33.7405 44.2177 30.3827 40.5712C26.7297 37.2137 23.5862 33.3412 21.0513 29.076C18.4367 24.3877 19.4735 22.5395 24.7929 18.7077C27.2046 16.9496 27.9935 15.3719 26.9116 13.3433L22.4037 5.02615C20.5329 1.46488 18.031 1.05917 14.064 2.36647C8.76718 4.16965 1.44179 14.0195 1.68972 17.6484Z" stroke="#FF7E00" stroke-width="4" stroke-linecap="round" stroke-linejoin="round"/>
<path d="M12.96 3.94434L21.9758 19.7221" stroke="#FF7E00" stroke-width="4" stroke-linecap="round" stroke-linejoin="round"/>
<path d="M51.2773 49.0234L67.0551 58.0393" stroke="#FF7E00" stroke-width="4" stroke-linecap="round" stroke-linejoin="round"/>
</g>
<defs>
<clipPath id="clip0">
<rect width="71" height="71" fill="white"/>
</clipPath>
</defs>
</svg>
