<svg width="69" height="94" viewBox="0 0 69 94" fill="none" xmlns="http://www.w3.org/2000/svg">
<path d="M32.9362 19.237C33.2599 19.2688 33.5862 19.2847 33.9152 19.2847C36.4291 19.2793 38.8415 18.2929 40.6378 16.5357C42.4342 14.7785 43.4723 12.3896 43.5309 9.87853C43.5895 7.36742 42.6639 4.93281 40.9514 3.09389C39.239 1.25496 36.8753 0.157267 34.3643 0.0348858C31.8534 -0.087495 29.394 0.775126 27.5105 2.43879C25.6271 4.10245 24.4687 6.43549 24.2824 8.94038C24.0961 11.4453 24.8966 13.9237 26.5133 15.8473C28.1299 17.7708 30.4347 18.9872 32.9362 19.237ZM28.264 9.07351C28.4092 7.6792 29.0648 6.38761 30.1049 5.44675C31.145 4.50589 32.4962 3.98208 33.8993 3.97588C34.0928 3.96421 34.2868 3.96421 34.4803 3.97588C35.5949 4.08999 36.6506 4.53164 37.514 5.24502C38.3775 5.9584 39.0099 6.9115 39.3314 7.98387C39.6529 9.05625 39.649 10.1998 39.3203 11.27C38.9916 12.3401 38.3527 13.289 37.4845 13.9965C36.6163 14.7041 35.5576 15.1386 34.4423 15.2452C33.327 15.3518 32.2051 15.1257 31.2183 14.5954C30.2316 14.0652 29.4243 13.2546 28.8984 12.2661C28.3726 11.2776 28.1518 10.1555 28.264 9.0417V9.07351Z" fill="#FF7E00"/>
<path d="M63.7944 33.576L53.0811 32.4865L43.0682 24.1681C41.6705 23.0072 39.9576 22.2899 38.1493 22.1083L28.0169 21.0824C26.8256 20.9541 25.6206 21.0631 24.4716 21.403C23.3226 21.7429 22.2525 22.307 21.3231 23.0627L8.03886 33.918C7.73492 34.1693 7.51088 34.5037 7.39415 34.8802L3.41445 47.8192C2.97983 49.2044 3.08727 50.7028 3.71509 52.0119C4.34291 53.3211 5.44436 54.3436 6.79719 54.8731C7.52093 55.1462 8.29301 55.2681 9.06574 55.2313C9.83848 55.1944 10.5954 54.9997 11.2899 54.6591C11.9844 54.3185 12.6015 53.8393 13.1033 53.251C13.6051 52.6627 13.9809 51.9779 14.2074 51.2388L17.3911 40.8368L21.3708 37.616L19.9461 51.6126L14.9158 67.3985L1.64746 81.3315C0.697974 82.3211 0.166101 83.6379 0.162132 85.0088C0.158163 86.3797 0.682402 87.6996 1.62615 88.6947C2.56989 89.6898 3.86074 90.2838 5.23103 90.3536C6.60132 90.4233 7.94592 89.9635 8.98603 89.0694L25.8122 74.3809C26.038 74.1809 26.2173 73.9339 26.3375 73.6572L30.1182 64.6708L36.6131 72.2178L42.3757 89.9203C42.6558 91.0813 43.318 92.1145 44.2562 92.8543C45.1944 93.5942 46.3541 93.9977 47.5493 94C47.9589 93.9983 48.3671 93.953 48.7671 93.8649C50.1338 93.5392 51.3174 92.6893 52.0621 91.4988C52.8068 90.3084 53.0527 88.8729 52.7468 87.5028L48.9263 66.3885C48.8639 66.0999 48.7389 65.8284 48.5601 65.5933L39.1999 52.9963L40.7918 36.9877L48.0746 42.9999C48.3774 43.2518 48.749 43.4069 49.1412 43.4452L62.7358 44.821C63.4835 44.8976 64.239 44.8244 64.958 44.6057C65.677 44.3869 66.3451 44.0271 66.9233 43.5472C67.5014 43.0673 67.9779 42.4771 68.3249 41.8109C68.6719 41.1448 68.8824 40.4162 68.9442 39.6677C69.0446 38.1832 68.5636 36.7177 67.6026 35.581C66.6417 34.4443 65.2761 33.7253 63.7944 33.576ZM22.8433 71.6929L6.36739 86.119L6.31167 86.1747C6.11852 86.3718 5.86992 86.5056 5.59888 86.5583C5.32783 86.611 5.04715 86.5801 4.79412 86.4696C4.54108 86.3592 4.32765 86.1744 4.18217 85.9399C4.03668 85.7055 3.96602 85.4323 3.97957 85.1567C3.98584 84.8066 4.12863 84.4728 4.37754 84.2263L4.43325 84.1786L4.55264 84.0513L18.0836 69.8161C18.2942 69.5896 18.4495 69.3174 18.5373 69.0209L22.6841 56.0024L27.1971 61.2671L22.8433 71.6929ZM64.4153 40.4868C64.2477 40.6331 64.0514 40.7426 63.8389 40.8083C63.6264 40.8741 63.4025 40.8946 63.1815 40.8686L50.1839 39.5484L40.4973 31.5481C40.2192 31.3185 39.8838 31.1688 39.5272 31.115C39.1705 31.0612 38.8058 31.1052 38.4723 31.2424C38.1387 31.3797 37.8488 31.6049 37.6335 31.8941C37.4181 32.1833 37.2855 32.5255 37.2498 32.8841L35.1645 53.3621C35.1175 53.8571 35.2534 54.3521 35.5465 54.7539L45.0978 67.5576L48.8546 88.2344C48.8509 88.2634 48.8509 88.2928 48.8546 88.3219C48.8961 88.4958 48.9019 88.6764 48.8718 88.8527C48.8418 89.029 48.7763 89.1973 48.6795 89.3478C48.5867 89.5005 48.4643 89.6333 48.3195 89.7382C48.1747 89.8432 48.0104 89.9182 47.8362 89.9589C47.6621 89.9997 47.4815 90.0053 47.3051 89.9754C47.1288 89.9456 46.9601 89.8809 46.8091 89.7852C46.5157 89.606 46.3021 89.3215 46.2121 88.9899C46.1941 88.8949 46.1675 88.8017 46.1325 88.7116L40.2585 70.6114C40.1725 70.3651 40.0431 70.1362 39.8764 69.9354L23.9576 51.374L25.8042 33.2659C25.8447 32.875 25.7683 32.481 25.5847 32.1335C25.4012 31.786 25.1187 31.5006 24.7729 31.3134C24.4272 31.1262 24.0336 31.0456 23.642 31.0817C23.2505 31.1178 22.8783 31.269 22.5727 31.5163L14.4143 38.1726C14.105 38.4206 13.8775 38.7559 13.7617 39.1349L10.4028 50.1016C10.3371 50.3215 10.2264 50.5255 10.0779 50.7006C9.92937 50.8758 9.74613 51.0182 9.53974 51.1191C9.33336 51.22 9.1083 51.277 8.87875 51.2867C8.6492 51.2963 8.42014 51.2584 8.20601 51.1752C7.79731 50.999 7.47068 50.6745 7.29196 50.2672C7.11324 49.8598 7.09571 49.4 7.24292 48.9803L11.0236 36.6219L23.8781 26.1721C24.403 25.7448 25.0071 25.4251 25.6559 25.2313C26.3046 25.0375 26.9852 24.9735 27.6588 25.0429L37.7911 26.0687C38.8101 26.1693 39.7752 26.5739 40.5609 27.2298L51.0037 35.93C51.3087 36.1845 51.6829 36.3424 52.0782 36.3833L63.3965 37.5285C63.8455 37.5651 64.2626 37.7748 64.5597 38.1131C64.8568 38.4515 65.0105 38.8921 64.9883 39.3417C64.9774 39.5618 64.9209 39.7773 64.8222 39.9744C64.7236 40.1716 64.585 40.3461 64.4153 40.4868Z" fill="#FF7E00"/>
</svg>
