<svg width="76" height="76" viewBox="0 0 76 76" fill="none" xmlns="http://www.w3.org/2000/svg">
<path fill-rule="evenodd" clip-rule="evenodd" d="M75.9139 0L0 75.9999V27.7188L27.6874 0H75.9139Z" fill="#F9BC02"/>
<path d="M24.1836 39.2676L21.6875 41.6678L10.9286 38.5277L10.8715 38.5825C12.1403 39.7442 13.0282 40.5893 13.5353 41.1178L17.7216 45.4813L15.9667 47.1687L7.07086 37.8964L9.54799 35.5144L20.2337 38.5909L20.278 38.5482C19.0586 37.4041 18.2095 36.5826 17.7309 36.0837L13.5203 31.6948L15.2878 29.9952L24.1836 39.2676ZM33.1532 30.6427L27.8189 35.7721L18.9231 26.4997L24.2574 21.3703L25.8029 22.9813L22.4325 26.2222L24.3857 28.258L27.5217 25.2425L29.0672 26.8535L25.9312 29.869L28.2252 32.26L31.5956 29.0191L33.1532 30.6427ZM45.4109 18.8562L43.1745 21.0066L37.2471 17.342C37.0343 17.2133 36.6113 16.9332 35.978 16.5016C35.3449 16.0618 34.9307 15.7569 34.7353 15.5872C34.929 15.8398 35.2186 16.2686 35.604 16.8735C35.9853 17.4741 36.252 17.9086 36.404 18.177L39.8168 24.2353L37.5867 26.3796L26.3278 19.3795L28.2601 17.5215L34.3004 21.4435C35.4038 22.1789 36.3306 22.8444 37.0807 23.44C36.8748 23.1746 36.5748 22.7477 36.1808 22.1593C35.7869 21.5626 35.4963 21.0861 35.3088 20.7299L31.6749 14.238L33.5311 12.4531L39.8639 16.3498C40.1462 16.5255 40.5608 16.8096 41.1079 17.2021C41.655 17.5946 42.116 17.9398 42.491 18.2376C42.2169 17.8672 41.891 17.392 41.5134 16.8122C41.1317 16.2282 40.8328 15.7474 40.6168 15.3699L36.9396 9.17566L38.8718 7.31764L45.4109 18.8562Z" fill="white"/>
</svg>
