<svg width="22" height="23" viewBox="0 0 22 23" fill="none" xmlns="http://www.w3.org/2000/svg">
<path d="M20.7005 18.961L14.4656 12.583C16.1461 9.56109 15.7285 5.64034 13.2116 3.06569C10.1932 -0.021898 5.28206 -0.021898 2.26375 3.06569C-0.754556 6.15329 -0.754611 11.1771 2.26375 14.2647C4.78061 16.8393 8.61351 17.2665 11.5677 15.5474L17.8026 21.9254C18.6015 22.7427 19.9016 22.7426 20.7005 21.9254C21.4995 21.1082 21.4996 19.7783 20.7005 18.961ZM11.6696 12.6874C9.50153 14.9053 5.97382 14.9053 3.80564 12.6874C1.63752 10.4695 1.63752 6.86086 3.80564 4.64301C5.97382 2.42515 9.50153 2.42515 11.6696 4.64301C13.8378 6.86086 13.8378 10.4696 11.6696 12.6874Z" fill="#FF7E00"/>
</svg>
