<svg width="31" height="31" viewBox="0 0 31 31" fill="none" xmlns="http://www.w3.org/2000/svg">
<path d="M29.4851 25.3781L20.7034 16.5964C23.0703 12.4356 22.4822 7.03714 18.9372 3.49215C14.6859 -0.759103 7.76869 -0.759103 3.51751 3.49215C-0.733664 7.74341 -0.733741 14.6606 3.51751 18.9119C7.06243 22.4568 12.4609 23.045 16.6218 20.678L25.4034 29.4598C26.5287 30.5851 28.3599 30.585 29.4851 29.4598C30.6104 28.3346 30.6105 26.5035 29.4851 25.3781ZM16.7654 16.7401C13.7117 19.7939 8.74301 19.7939 5.68921 16.7401C2.63549 13.6864 2.63549 8.71765 5.68921 5.66393C8.74301 2.6102 13.7117 2.6102 16.7654 5.66393C19.8192 8.71765 19.8191 13.6865 16.7654 16.7401Z" fill="white"/>
</svg>
